<svg width="24" height="25" viewBox="0 0 24 25" fill="none" xmlns="http://www.w3.org/2000/svg">
<path d="M13 8.5V16.5C13 18.1569 11.6569 19.5 10 19.5H7.82929C7.41746 20.6652 6.30622 21.5 5 21.5C3.34315 21.5 2 20.1569 2 18.5C2 16.8431 3.34315 15.5 5 15.5C6.30622 15.5 7.41746 16.3348 7.82929 17.5H10C10.5523 17.5 11 17.0523 11 16.5V8.5C11 6.84315 12.3431 5.5 14 5.5H17V2.5L22 6.5L17 10.5V7.5H14C13.4477 7.5 13 7.94772 13 8.5ZM5 19.5C5.55228 19.5 6 19.0523 6 18.5C6 17.9477 5.55228 17.5 5 17.5C4.44772 17.5 4 17.9477 4 18.5C4 19.0523 4.44772 19.5 5 19.5Z" fill="#2FD7D4"/>
</svg>
