<svg width="195" height="36" viewBox="0 0 195 36" fill="none" xmlns="http://www.w3.org/2000/svg">
<g clip-path="url(#clip0_981_1792)">
<path d="M67.017 26.9952H62.2876V13.3533H55.1957V26.9952H50.4663V8.78357H67.0217V26.9952H67.017Z" fill="#002D55"/>
<path d="M77.7087 9.01441C78.5544 8.60553 79.5938 8.4035 80.827 8.4035C82.2208 8.4035 83.539 8.78351 84.7863 9.53873C86.0289 10.2939 87.0541 11.3859 87.8526 12.8193C88.6511 14.248 89.0527 15.9316 89.0527 17.8605C89.0527 19.7894 88.6511 21.5115 87.8526 22.9545C87.0541 24.3976 86.0289 25.4896 84.7863 26.2351C83.539 26.9807 82.2208 27.3511 80.827 27.3511C79.5938 27.3511 78.5544 27.1491 77.7087 26.7402C76.8629 26.3314 76.1873 25.8167 75.6865 25.1865V35.9952H70.957V8.78832H75.6865V10.5681C76.1873 9.93798 76.8629 9.42328 77.7087 9.01441ZM77.3307 22.2715C77.9921 22.6082 78.7245 22.7766 79.5229 22.7766C80.3214 22.7766 81.101 22.5697 81.7861 22.1464C82.4712 21.7279 83.024 21.1459 83.4492 20.4003C83.8697 19.6547 84.0823 18.8081 84.0823 17.8509C84.0823 16.8936 83.8697 16.0855 83.4492 15.3399C83.024 14.5943 82.4712 14.0219 81.7861 13.613C81.101 13.2041 80.345 13.0021 79.5229 13.0021C78.7008 13.0021 77.9921 13.1657 77.3307 13.4928C76.6692 13.8199 76.1212 14.272 75.6865 14.8541V20.8909C76.1212 21.473 76.6692 21.9348 77.3307 22.2715Z" fill="#002D55"/>
<path d="M95.8093 26.1149C94.3588 25.2875 93.2154 24.1571 92.3839 22.7141C91.5476 21.271 91.1318 19.6547 91.1318 17.8653C91.1318 16.0759 91.5476 14.4981 92.3839 13.0695C93.2154 11.6408 94.3588 10.5056 95.8093 9.66863C97.2598 8.83164 98.852 8.41315 100.591 8.41315C102.329 8.41315 103.922 8.83164 105.372 9.66863C106.823 10.5056 107.966 11.6456 108.798 13.0887C109.629 14.5318 110.05 16.1384 110.05 17.9038C110.05 19.6692 109.634 21.2758 108.798 22.7189C107.961 24.1619 106.823 25.2972 105.372 26.1197C103.922 26.9471 102.329 27.3608 100.591 27.3608C98.852 27.3608 97.2598 26.9471 95.8093 26.1197V26.1149ZM102.939 22.0695C103.633 21.6606 104.191 21.093 104.602 20.3618C105.013 19.6307 105.221 18.8081 105.221 17.9038C105.221 16.9995 105.018 16.1769 104.602 15.4458C104.191 14.7146 103.638 14.1422 102.939 13.7381C102.24 13.3292 101.46 13.1272 100.591 13.1272C99.7214 13.1272 98.9418 13.334 98.2425 13.7573C97.5433 14.1758 96.9905 14.7386 96.5794 15.4506C96.1684 16.1625 95.9605 16.9706 95.9605 17.8749C95.9605 18.7793 96.1684 19.6018 96.5794 20.333C96.9905 21.0641 97.5433 21.6414 98.2425 22.0599C98.9371 22.4784 99.7214 22.69 100.591 22.69C101.46 22.69 102.24 22.488 102.939 22.0791V22.0695Z" fill="#002D55"/>
<path d="M122.859 17.4083L132.624 8.40831V27.0048H127.999V17.8653L122.825 23.0315L117.652 17.9374V27.0096H113.026V8.4035L122.863 17.4035L122.859 17.4083Z" fill="#002D55"/>
<path d="M153.791 27H149.062V25.1865C148.561 25.8167 147.885 26.3314 147.039 26.7402C146.194 27.1491 145.154 27.3511 143.921 27.3511C142.527 27.3511 141.209 26.9807 139.962 26.2351C138.714 25.4896 137.694 24.3976 136.895 22.9545C136.097 21.5115 135.695 19.8279 135.695 17.8942C135.695 15.9604 136.097 14.248 136.895 12.8193C137.694 11.3907 138.719 10.2939 139.962 9.53873C141.204 8.78351 142.527 8.4035 143.921 8.4035C145.154 8.4035 146.194 8.60553 147.039 9.01441C147.885 9.42328 148.561 9.93798 149.062 10.5681V8.78832H153.791V27ZM141.299 20.4243C141.719 21.1555 142.277 21.7327 142.962 22.1512C143.647 22.5697 144.403 22.7814 145.225 22.7814C146.047 22.7814 146.756 22.613 147.417 22.2763C148.079 21.9396 148.627 21.4778 149.062 20.8958V14.8589C148.627 14.2768 148.079 13.8247 147.417 13.4976C146.756 13.1705 146.024 13.0069 145.225 13.0069C144.427 13.0069 143.647 13.209 142.962 13.6178C142.277 14.0267 141.724 14.5991 141.299 15.3447C140.874 16.0903 140.666 16.9369 140.666 17.8942C140.666 18.8514 140.878 19.6932 141.299 20.4243Z" fill="#002D55"/>
<path d="M157.712 8.78838H162.442V19.1497L169.638 14.402V8.78357H174.367V26.9952H169.638V19.2844L157.712 27.3464V8.78838Z" fill="#002D55"/>
<path d="M190.27 20.0251H183.075V27.0048H178.345V8.78833H183.075V15.4505H190.27V8.78833H195V27H190.27V20.0203V20.0251Z" fill="#002D55"/>
<path d="M2 0V36H10.8399V9H28.5198V27H37.3598V0H2Z" fill="#00DCDC"/>
<path d="M28.5196 27H19.6797V36H28.5196V27Z" fill="#00DCDC"/>
<path d="M170.805 1.84717H161.313V5.33461H170.805V1.84717Z" fill="#002D55"/>
</g>
<defs>
<clipPath id="clip0_981_1792">
<rect width="195" height="35.9341" fill="white"/>
</clipPath>
</defs>
</svg>
