<svg width="140" height="26" viewBox="0 0 140 26" fill="none" xmlns="http://www.w3.org/2000/svg">
<g clip-path="url(#clip0_290_364)">
<path d="M0 0.5V25.5H6.44971V6.75H19.3491V19.25H25.7988V0.5H0Z" fill="#00DCDC"/>
<path d="M19.3491 19.25H12.8994V25.5H19.3491V19.25Z" fill="#00DCDC"/>
<path d="M39.1962 19.23H35.4734V6.78751H47.2351V19.23H43.4865V9.77251H39.1962V19.23Z" fill="#002D55"/>
<path d="M53.3392 25.5H49.6165V6.78749H53.2618V8.37999C53.7198 7.81685 54.2957 7.35418 54.9517 7.02249C55.62 6.69552 56.3598 6.52917 57.1084 6.53749C58.1902 6.51213 59.2567 6.78847 60.181 7.33361C61.1054 7.87875 61.8486 8.66975 62.3224 9.61249C62.857 10.6678 63.1225 11.8321 63.0964 13.0075C63.1228 14.1837 62.8574 15.3489 62.3224 16.405C61.8486 17.3477 61.1054 18.1387 60.181 18.6839C59.2567 19.229 58.1902 19.5053 57.1084 19.48C56.3749 19.4875 55.6497 19.3291 54.9904 19.0175C54.3517 18.7159 53.7883 18.2834 53.3392 17.75V25.5ZM56.3964 16.27C56.8029 16.2796 57.2067 16.2044 57.5806 16.0495C57.9545 15.8947 58.2897 15.6638 58.5635 15.3725C59.1592 14.7209 59.4685 13.8695 59.4252 13C59.464 12.1364 59.155 11.292 58.5635 10.645C58.2895 10.3541 57.9542 10.1237 57.5803 9.9693C57.2064 9.81489 56.8027 9.7401 56.3964 9.74999C55.9873 9.74066 55.5808 9.81588 55.204 9.97063C54.8273 10.1254 54.4888 10.3561 54.2112 10.6475C53.6142 11.2909 53.3011 12.1355 53.3392 13C53.298 13.8687 53.6112 14.7183 54.2112 15.365C54.4881 15.6577 54.8262 15.8899 55.2031 16.0459C55.5799 16.202 55.9867 16.2784 56.3964 16.27Z" fill="#002D55"/>
<path d="M70.7429 19.48C69.5526 19.4961 68.3783 19.2127 67.3349 18.6575C66.3386 18.1243 65.5123 17.3366 64.9459 16.38C64.3452 15.3501 64.0414 14.1827 64.0662 13C64.041 11.8213 64.3421 10.6577 64.9382 9.62999C65.5078 8.67516 66.3368 7.89002 67.3349 7.35999C68.3895 6.81991 69.5643 6.5376 70.7571 6.5376C71.9499 6.5376 73.1247 6.81991 74.1793 7.35999C75.1696 7.89652 75.9909 8.68373 76.5554 9.63749C77.1474 10.6637 77.4457 11.8246 77.4196 13C77.4454 14.1795 77.1442 15.3441 76.5476 16.3725C75.9832 17.3262 75.1619 18.1135 74.1716 18.65C73.1232 19.2123 71.941 19.4985 70.7429 19.48ZM70.7429 16.27C71.1527 16.2784 71.5596 16.2014 71.9361 16.0445C72.3126 15.8875 72.65 15.6541 72.9255 15.36C73.5251 14.7149 73.8392 13.8674 73.8001 13C73.8413 12.1316 73.527 11.2825 72.9255 10.6375C72.6425 10.3535 72.3034 10.1276 71.9284 9.97339C71.5535 9.81914 71.1503 9.73964 70.7429 9.73964C70.3355 9.73964 69.9323 9.81914 69.5573 9.97339C69.1824 10.1276 68.8433 10.3535 68.5603 10.6375C67.9588 11.2825 67.6445 12.1316 67.6857 13C67.6486 13.8648 67.9626 14.7093 68.5603 15.3525C68.8349 15.6482 69.1719 15.8832 69.5485 16.0415C69.9251 16.1998 70.3325 16.2777 70.7429 16.27Z" fill="#002D55"/>
<path d="M88.9235 19.23H85.5026L82.3835 10V19.25H79.0452V6.78751H84.5713L87.3395 15.6525L90.0819 6.78751H95.559V19.23H92.04V9.91251L88.9235 19.23Z" fill="#002D55"/>
<path d="M103.195 6.5375C103.939 6.52673 104.675 6.68514 105.344 7C106.003 7.32401 106.582 7.78293 107.039 8.345V6.7875H110.713V19.23H107.039V17.6625C106.581 18.2219 106.003 18.6782 105.344 19C104.676 19.3198 103.94 19.4841 103.195 19.48C102.114 19.4977 101.05 19.2168 100.128 18.67C99.2174 18.1207 98.4831 17.3363 98.0072 16.405C97.4722 15.3489 97.2068 14.1837 97.2332 13.0075C97.2071 11.8321 97.4726 10.6678 98.0072 9.6125C98.4831 8.68116 99.2174 7.8968 100.128 7.3475C101.05 6.80073 102.114 6.51978 103.195 6.5375ZM103.933 9.75C103.524 9.74055 103.118 9.81572 102.742 9.97049C102.366 10.1253 102.028 10.3561 101.751 10.6475C101.151 11.2896 100.836 12.1346 100.873 13C100.832 13.8692 101.146 14.7192 101.748 15.365C102.032 15.6502 102.373 15.877 102.75 16.0319C103.127 16.1868 103.532 16.2666 103.941 16.2666C104.35 16.2666 104.755 16.1868 105.132 16.0319C105.509 15.877 105.849 15.6502 106.134 15.365C106.725 14.7142 107.031 13.8659 106.988 13C107.029 12.1342 106.721 11.2868 106.129 10.6375C105.85 10.346 105.509 10.1159 105.13 9.96285C104.752 9.80974 104.343 9.73716 103.933 9.75Z" fill="#002D55"/>
<path d="M125.547 19.23H122.054V10.655L117.669 19.23H113.092V6.7875H116.585V15.3875L120.971 6.7875H125.542L125.547 19.23ZM120.617 0.5H123.262C123.262 1.695 122.894 2.62417 122.158 3.2875C121.421 3.95083 120.42 4.28417 119.155 4.2875C117.902 4.2875 116.913 3.95417 116.188 3.2875C115.462 2.62083 115.098 1.69167 115.096 0.5H117.715C117.715 1.03 117.862 1.4125 118.151 1.645C118.431 1.87499 118.787 2.00083 119.155 2C119.531 2.00955 119.898 1.88602 120.186 1.6525C120.474 1.41417 120.617 1.03 120.617 0.5Z" fill="#002D55"/>
<path d="M131.651 19.23H127.929V6.78751H131.651V11.515H136.275V6.78751H140V19.23H136.275V14.48H131.651V19.23Z" fill="#002D55"/>
</g>
<defs>
<clipPath id="clip0_290_364">
<rect width="140" height="25" fill="white" transform="translate(0 0.5)"/>
</clipPath>
</defs>
</svg>
