<svg width="24" height="25" viewBox="0 0 24 25" fill="none" xmlns="http://www.w3.org/2000/svg">
<g id="process-people">
<path id="Vector" d="M12 14.5V16.5C8.68629 16.5 6 19.1863 6 22.5H4C4 18.0817 7.58172 14.5 12 14.5ZM12 13.5C8.685 13.5 6 10.815 6 7.5C6 4.185 8.685 1.5 12 1.5C15.315 1.5 18 4.185 18 7.5C18 10.815 15.315 13.5 12 13.5ZM12 11.5C14.21 11.5 16 9.71 16 7.5C16 5.29 14.21 3.5 12 3.5C9.79 3.5 8 5.29 8 7.5C8 9.71 9.79 11.5 12 11.5ZM14.5946 19.3115C14.5327 19.0511 14.5 18.7794 14.5 18.5C14.5 18.2207 14.5327 17.949 14.5945 17.6886L13.6029 17.1161L14.6029 15.384L15.5952 15.9569C15.9883 15.5851 16.4676 15.3034 17 15.1449V14H19V15.1449C19.5324 15.3034 20.0116 15.5851 20.4047 15.9569L21.3971 15.3839L22.3972 17.116L21.4055 17.6885C21.4673 17.949 21.5 18.2207 21.5 18.5C21.5 18.7793 21.4673 19.051 21.4055 19.3114L22.3972 19.8839L21.3972 21.616L20.4048 21.043C20.0117 21.4149 19.5325 21.6966 19.0001 21.855V23H17.0001V21.8551C16.4677 21.6967 15.9884 21.415 15.5953 21.0431L14.603 21.6161L13.6029 19.884L14.5946 19.3115ZM18 20C18.8284 20 19.5 19.3284 19.5 18.5C19.5 17.6716 18.8284 17 18 17C17.1716 17 16.5 17.6716 16.5 18.5C16.5 19.3284 17.1716 20 18 20Z" fill="#2FD7D4"/>
</g>
</svg>
