<svg width="24" height="25" viewBox="0 0 24 25" fill="none" xmlns="http://www.w3.org/2000/svg">
<g id="stack">
<path id="Vector" d="M20.0833 15.6998L21.2854 16.4211C21.5221 16.5632 21.5989 16.8703 21.4569 17.1071C21.4146 17.1774 21.3557 17.2363 21.2854 17.2786L12.5144 22.5411C12.1977 22.7311 11.8021 22.7311 11.4854 22.5411L2.71451 17.2786C2.47772 17.1365 2.40093 16.8294 2.54301 16.5926C2.58523 16.5222 2.64413 16.4633 2.71451 16.4211L3.9166 15.6998L11.9999 20.5498L20.0833 15.6998ZM20.0833 10.9998L21.2854 11.7211C21.5221 11.8632 21.5989 12.1703 21.4569 12.4071C21.4146 12.4774 21.3557 12.5363 21.2854 12.5786L11.9999 18.1498L2.71451 12.5786C2.47772 12.4365 2.40093 12.1294 2.54301 11.8926C2.58523 11.8222 2.64413 11.7633 2.71451 11.7211L3.9166 10.9998L11.9999 15.8498L20.0833 10.9998ZM12.5144 1.80852L21.2854 7.07108C21.5221 7.21315 21.5989 7.52028 21.4569 7.75707C21.4146 7.82745 21.3557 7.88635 21.2854 7.92857L11.9999 13.4998L2.71451 7.92857C2.47772 7.7865 2.40093 7.47937 2.54301 7.24258C2.58523 7.1722 2.64413 7.1133 2.71451 7.07108L11.4854 1.80852C11.8021 1.61851 12.1977 1.61851 12.5144 1.80852ZM11.9999 3.83221L5.88723 7.49983L11.9999 11.1674L18.1126 7.49983L11.9999 3.83221Z" fill="#2FD7D4"/>
</g>
</svg>
